<?xml version="1.0" standalone="no"?>
<!DOCTYPE svg PUBLIC "-//W3C//DTD SVG 20010904//EN"
 "http://www.w3.org/TR/2001/REC-SVG-20010904/DTD/svg10.dtd">
<svg version="1.0" xmlns="http://www.w3.org/2000/svg"
 width="326.000000pt" height="326.000000pt" viewBox="0 0 326.000000 326.000000"
 preserveAspectRatio="xMidYMid meet">
<metadata>
Created by potrace 1.11, written by Peter Selinger 2001-2013
</metadata>
<g transform="translate(0.000000,326.000000) scale(0.100000,-0.100000)"
fill="#000000" stroke="none">
<path d="M1048 3215 c-2 -13 -9 -19 -20 -17 -15 2 -18 -5 -18 -41 0 -27 -5
-46 -12 -49 -7 -2 -55 -4 -105 -3 -91 0 -92 0 -88 -22 3 -18 -1 -22 -18 -20
-21 2 -22 -1 -22 -94 l0 -95 -75 0 c-53 1 -75 -3 -76 -11 -1 -7 -2 -17 -3 -22
0 -5 -9 -8 -18 -7 -16 1 -18 -9 -18 -90 l0 -90 -38 1 c-21 1 -37 -3 -36 -9 3
-26 -2 -34 -19 -29 -17 4 -18 -16 -17 -404 0 -224 -2 -419 -5 -433 -6 -22 -10
-24 -63 -22 -44 1 -57 -2 -57 -13 0 -8 -5 -14 -12 -12 -15 3 -19 -351 -3 -356
5 -2 53 -3 106 -2 l95 1 0 -86 -1 -86 33 1 32 2 0 -63 c0 -62 1 -64 26 -64 19
0 25 -4 20 -15 -3 -8 -1 -15 4 -15 6 0 10 -9 10 -20 0 -17 8 -19 67 -22 l67
-3 -3 -53 -2 -52 85 0 86 0 0 -55 0 -55 230 0 230 0 0 -30 c0 -30 -1 -30 -54
-30 -49 0 -55 -2 -58 -22 -3 -22 -7 -22 -128 -23 l-125 0 0 -67 c0 -74 3 -71
-66 -70 l-35 1 0 -274 0 -275 696 0 696 0 0 274 0 274 -51 -2 -51 -2 2 71 2
71 -132 0 c-128 -1 -131 0 -134 22 -3 18 -10 22 -43 22 -37 0 -39 2 -39 30 l0
30 230 0 c198 0 230 2 230 15 0 8 5 15 10 15 6 0 10 18 10 40 l0 40 75 0 c60
0 75 3 75 15 0 8 5 15 10 15 6 0 10 18 10 40 l0 40 60 0 c36 0 60 4 60 11 0
14 28 41 37 36 5 -3 8 32 8 76 0 77 1 82 23 85 12 2 22 10 22 18 0 8 5 14 10
14 6 0 10 33 10 80 l0 80 105 0 c87 0 105 3 105 15 0 8 5 15 10 15 6 0 10 64
10 173 l0 173 -60 2 c-33 0 -64 3 -68 6 -4 2 -7 191 -7 419 l0 414 -45 -1 -45
-1 0 125 0 125 -70 0 c-38 0 -75 3 -81 7 -6 4 -10 48 -9 116 l1 108 -98 0 -98
-1 0 65 0 65 -685 0 c-677 0 -684 0 -687 -20z"/>
</g>
</svg>
